<svg xmlns="http://www.w3.org/2000/svg" enable-background="new 0 0 1024 1024" viewBox="0 0 1024 1024"><path d="M520,950.3c-14.8-14.8-29.7-29.7-44.5-44.5c-35.4-35.4-70.8-70.8-106.2-106.2c-43-43-86-86-129-129
				c-37-37-73.9-73.9-110.9-110.9c-12.2-12.2-24.4-24.4-36.6-36.6c-5.8-5.8-11.3-12-17.4-17.4c-0.3-0.2-0.5-0.5-0.8-0.8
				c0,4.7,0,9.4,0,14.1c14.8-14.8,29.7-29.7,44.5-44.5c35.4-35.4,70.8-70.8,106.2-106.2c43-43,86-86,129-129
				c37-37,73.9-73.9,110.9-110.9c18-18,36.5-35.5,54-54c0.3-0.3,0.5-0.5,0.8-0.8c9.1-9.1-5-23.3-14.1-14.1
				c-14.8,14.8-29.7,29.7-44.5,44.5c-35.4,35.4-70.8,70.8-106.2,106.2c-43,43-86,86-129,129c-37,37-73.9,73.9-110.9,110.9
				c-18,18-36.5,35.5-54,54c-0.3,0.3-0.5,0.5-0.8,0.8c-3.8,3.8-3.8,10.3,0,14.1c14.8,14.8,29.7,29.7,44.5,44.5
				c35.4,35.4,70.8,70.8,106.2,106.2c43,43,86,86,129,129c37,37,73.9,73.9,110.9,110.9c18,18,35.5,36.5,54,54
				c0.3,0.3,0.5,0.5,0.8,0.8C515,973.6,529.1,959.4,520,950.3L520,950.3z"/><path d="M67.3,522c8,0,15.9,0,23.9,0c21.5,0,43.1,0,64.6,0c32,0,63.9,0,95.9,0c38.9,0,77.7,0,116.6,0
				c42.6,0,85.1,0,127.7,0c43.1,0,86.2,0,129.4,0c40.1,0,80.1,0,120.2,0c34,0,68,0,101.9,0c24.3,0,48.7,0,73,0
				c11.5,0,23.1,0.2,34.6,0c0.5,0,1,0,1.5,0c12.9,0,12.9-20,0-20c-8,0-15.9,0-23.9,0c-21.5,0-43.1,0-64.6,0c-32,0-63.9,0-95.9,0
				c-38.9,0-77.7,0-116.6,0c-42.6,0-85.1,0-127.7,0c-43.1,0-86.2,0-129.4,0c-40.1,0-80.1,0-120.2,0c-34,0-68,0-101.9,0
				c-24.3,0-48.7,0-73,0c-11.5,0-23.1-0.2-34.6,0c-0.5,0-1,0-1.5,0C54.5,502,54.5,522,67.3,522L67.3,522z"/></svg>